<svg width="1280" height="832" viewBox="0 0 1280 832" fill="none" xmlns="http://www.w3.org/2000/svg">
<g clip-path="url(#clip0_6_70)">
<path d="M15 -160V864" stroke="white" stroke-opacity="0.06"/>
<path d="M65 -160V864" stroke="white" stroke-opacity="0.06"/>
<path d="M115 -160V864" stroke="white" stroke-opacity="0.06"/>
<path d="M165 -160V864" stroke="white" stroke-opacity="0.06"/>
<path d="M215 -160V864" stroke="white" stroke-opacity="0.06"/>
<path d="M265 -160V864" stroke="white" stroke-opacity="0.06"/>
<path d="M315 -160V864" stroke="white" stroke-opacity="0.06"/>
<path d="M365 -160V864" stroke="white" stroke-opacity="0.06"/>
<path d="M415 -160V864" stroke="white" stroke-opacity="0.06"/>
<path d="M465 -160V864" stroke="white" stroke-opacity="0.06"/>
<path d="M515 -160V864" stroke="white" stroke-opacity="0.06"/>
<path d="M565 -160V864" stroke="white" stroke-opacity="0.06"/>
<path d="M615 -160V864" stroke="white" stroke-opacity="0.06"/>
<path d="M665 -160V864" stroke="white" stroke-opacity="0.06"/>
<path d="M715 -160V864" stroke="white" stroke-opacity="0.06"/>
<path d="M765 -160V864" stroke="white" stroke-opacity="0.06"/>
<path d="M815 -160V864" stroke="white" stroke-opacity="0.06"/>
<path d="M865 -160V864" stroke="white" stroke-opacity="0.06"/>
<path d="M915 -160V864" stroke="white" stroke-opacity="0.06"/>
<path d="M965 -160V864" stroke="white" stroke-opacity="0.06"/>
<path d="M1015 -160V864" stroke="white" stroke-opacity="0.06"/>
<path d="M1065 -160V864" stroke="white" stroke-opacity="0.06"/>
<path d="M1115 -160V864" stroke="white" stroke-opacity="0.06"/>
<path d="M1165 -160V864" stroke="white" stroke-opacity="0.06"/>
<path d="M1215 -160V864" stroke="white" stroke-opacity="0.06"/>
<path d="M1265 -160V864" stroke="white" stroke-opacity="0.06"/>
<path d="M-185 797.48H1465" stroke="white" stroke-opacity="0.06"/>
<path d="M-185 747.087H1465" stroke="white" stroke-opacity="0.06"/>
<path d="M-185 696.693H1465" stroke="white" stroke-opacity="0.06"/>
<path d="M-185 646.299H1465" stroke="white" stroke-opacity="0.06"/>
<path d="M-185 595.906L1465 595.905" stroke="white" stroke-opacity="0.06"/>
<path d="M-185 545.512H1465" stroke="white" stroke-opacity="0.06"/>
<path d="M-185 495.118H1465" stroke="white" stroke-opacity="0.06"/>
<path d="M-185 444.724H1465" stroke="white" stroke-opacity="0.06"/>
<path d="M-185 394.331H1465" stroke="white" stroke-opacity="0.06"/>
<path d="M-185 343.937H1465" stroke="white" stroke-opacity="0.06"/>
<path d="M-185 293.543H1465" stroke="white" stroke-opacity="0.06"/>
<path d="M-185 243.15H1465" stroke="white" stroke-opacity="0.06"/>
<path d="M-185 192.756H1465" stroke="white" stroke-opacity="0.06"/>
<path d="M-185 142.362H1465" stroke="white" stroke-opacity="0.06"/>
<path d="M-185 91.969L1465 91.968" stroke="white" stroke-opacity="0.06"/>
<path d="M-185 41.575H1465" stroke="white" stroke-opacity="0.06"/>
</g>
<defs>
<clipPath id="clip0_6_70">
<rect width="1652" height="1025" fill="white" transform="translate(-186 -161)"/>
</clipPath>
</defs>
</svg>
